<svg xmlns="http://www.w3.org/2000/svg" width="1200" height="630" viewBox="0 0 1200 630" fill="none">
  <rect width="1200" height="630" fill="#0B1220"/>
  <defs>
    <linearGradient id="g" x1="0" y1="0" x2="1" y2="1">
      <stop offset="0%" stop-color="#F97316"/>
      <stop offset="100%" stop-color="#F59E0B"/>
    </linearGradient>
  </defs>
  <g opacity="0.25">
    <circle cx="1020" cy="120" r="220" fill="url(#g)"/>
    <circle cx="200" cy="560" r="260" fill="url(#g)"/>
  </g>
  <!-- Left logo icon -->
  <g transform="translate(60, 210)">
    <rect width="140" height="140" rx="28" fill="#0F1A2E"/>
    <path d="M70 24c-26 0-46 20-46 46s20 46 46 46c14 0 26.8-6.3 35.3-16.2 1.6-1.9 1.3-4.8-0.6-6.3-1.9-1.6-4.8-1.3-6.3 0.6-6.8 7.9-16.8 12.8-28.4 12.8-21.3 0-38.6-17.3-38.6-38.6S48.7 31.4 70 31.4c16.6 0 30.7 10.5 36.2 25.2H78.5c-2.4 0-4.3 1.9-4.3 4.3s1.9 4.3 4.3 4.3h34.6c2.4 0 4.3-1.9 4.3-4.3 0-25.3-20.5-46-46-46Z" fill="url(#g)"/>
    <path d="M34 98c11-16.5 27.5-27.5 48.4-30.8" stroke="#fff" stroke-opacity="0.9" stroke-width="6" stroke-linecap="round"/>
    <path d="M83 67l-6.2 4.9M83 67l-1.3 7.7" stroke="#fff" stroke-opacity="0.9" stroke-width="5" stroke-linecap="round" stroke-linejoin="round"/>
  </g>
  <text x="240" y="300" fill="white" font-family="Inter, Arial, sans-serif" font-size="56" font-weight="700">Gausi Digital Marketing</text>
  <text x="240" y="370" fill="#FBBF24" font-family="Inter, Arial, sans-serif" font-size="34" font-weight="600">Rank Higher. Grow Faster.</text>
</svg>


