<svg xmlns="http://www.w3.org/2000/svg" viewBox="0 0 64 64" fill="none" role="img" aria-label="GAUSI logo">
  <defs>
    <linearGradient id="grad" x1="0" y1="0" x2="1" y2="1">
      <stop offset="0%" stop-color="#F97316"/>
      <stop offset="100%" stop-color="#FBBF24"/>
    </linearGradient>
    <linearGradient id="navy" x1="0" y1="0" x2="0" y2="1">
      <stop offset="0%" stop-color="#1E3A5F"/>
      <stop offset="100%" stop-color="#0B1220"/>
    </linearGradient>
  </defs>
  <!-- Background -->
  <rect width="64" height="64" rx="14" fill="url(#navy)"/>
  <!-- G letterform -->
  <path d="M32 12c-11.05 0-20 8.95-20 20s8.95 20 20 20c5.85 0 11.1-2.45 14.9-6.4 0.73-0.75 0.7-1.95-0.05-2.67l-0.04-0.04c-0.75-0.72-1.95-0.69-2.67 0.06-2.97 3.06-7.12 4.97-11.64 4.97-9.0 0-16.28-7.28-16.28-16.28S23 15.72 32 15.72c6.78 0 12.57 4.13 15.1 10.06H34.5c-0.97 0-1.75 0.78-1.75 1.75s0.78 1.75 1.75 1.75H49c0.97 0 1.75-0.78 1.75-1.75C50.75 16.5 42.2 12 32 12Z" fill="url(#grad)"/>
  <!-- Mortarboard cap (education) -->
  <path d="M32 7l-10 4.5 10 4.5 10-4.5Z" fill="#FBBF24" opacity="0.85"/>
  <line x1="32" y1="7" x2="32" y2="12" stroke="#FBBF24" stroke-width="1.5" stroke-linecap="round" opacity="0.7"/>
  <!-- Open book at base -->
  <path d="M21 48c0-1.1 0.9-2 2-2h8v6h-8c-1.1 0-2-0.9-2-2v-2Z" fill="white" opacity="0.9"/>
  <path d="M43 48c0-1.1-0.9-2-2-2h-8v6h8c1.1 0 2-0.9 2-2v-2Z" fill="white" opacity="0.7"/>
  <line x1="33" y1="46" x2="33" y2="52" stroke="#FBBF24" stroke-width="1.2" opacity="0.8"/>
</svg>
