<svg xmlns="http://www.w3.org/2000/svg" viewBox="0 0 64 64" fill="none" role="img" aria-label="G icon">
  <defs>
    <linearGradient id="g" x1="0" y1="0" x2="1" y2="1">
      <stop offset="0%" stop-color="#F97316"/>
      <stop offset="100%" stop-color="#F59E0B"/>
    </linearGradient>
  </defs>
  <rect width="64" height="64" rx="14" fill="#0F1A2E"/>
  <path d="M32 10c-12.15 0-22 9.85-22 22s9.85 22 22 22c6.59 0 12.49-2.93 16.45-7.57 0.76-0.89 0.64-2.22-0.26-2.98l-0.03-0.03c-0.89-0.75-2.22-0.63-2.98 0.26-3.15 3.7-7.77 5.99-13.18 5.99-9.94 0-18-8.06-18-18s8.06-18 18-18c7.72 0 14.27 4.88 16.82 11.73H36c-1.1 0-2 .9-2 2s.9 2 2 2h15c1.1 0 2-.9 2-2 0-11.6-9.4-21-21-21Z" fill="url(#g)"/>
  <path d="M16 40c5-7.5 12.5-12.5 22-14" stroke="#fff" stroke-opacity="0.95" stroke-width="2.6" stroke-linecap="round"/>
  <path d="M37.5 26.5l-2.8 2.2M37.5 26.5l-0.6 3.5" stroke="#fff" stroke-opacity="0.95" stroke-width="2.2" stroke-linecap="round" stroke-linejoin="round"/>
</svg>

